<svg xmlns="http://www.w3.org/2000/svg" viewBox="0 0 15.71 15.82"><defs><style>.cls-1{fill:#fff;}</style></defs><g id="Layer_2" data-name="Layer 2"><g id="Layer_1-2" data-name="Layer 1"><path class="cls-1" d="M8.13,9.16c0,.6-.14,1.19-.08,1.75a13.92,13.92,0,0,0,.14,1.73,5.35,5.35,0,0,0,.47,1.59,1.27,1.27,0,0,0,1,.78H9.64a1.31,1.31,0,0,0,1-.8A3.89,3.89,0,0,0,11,12.69l0-.5.5.07c.84.11,1.81.22,2.32-.27a.86.86,0,0,0,.43-.8,1.69,1.69,0,0,0-.58-.93,6.11,6.11,0,0,0-2.32-1.2,16.07,16.07,0,0,0-2.72-.43,12.06,12.06,0,0,1,2.82,0,6.19,6.19,0,0,1,2.7,1.11,2.31,2.31,0,0,1,.89,1.36,1.49,1.49,0,0,1-.12.93,1.86,1.86,0,0,1-.56.67,2.47,2.47,0,0,1-.73.43,3.38,3.38,0,0,1-.79.14,6.24,6.24,0,0,1-1.5-.09l.53-.43a6,6,0,0,1-.14,1,4.1,4.1,0,0,1-.34.92,2.36,2.36,0,0,1-.66.83,2,2,0,0,1-1,.39H9.65A2,2,0,0,1,8,14.55a5.57,5.57,0,0,1-.42-1.84,9.91,9.91,0,0,1,0-1.81A8.75,8.75,0,0,1,8.13,9.16Z"/><path class="cls-1" d="M6.83,8.37A16.38,16.38,0,0,0,5.1,8a12.66,12.66,0,0,0-1.73-.11,5.17,5.17,0,0,0-1.64.24,1.26,1.26,0,0,0-.92.91V9a1.26,1.26,0,0,0,.64,1.09,4.14,4.14,0,0,0,1.46.58l.48.09-.14.49a3,3,0,0,0-.07,2.34.88.88,0,0,0,.74.53,1.65,1.65,0,0,0,1-.44A6.3,6.3,0,0,0,6.46,11.6,17.23,17.23,0,0,0,7.27,9a11.7,11.7,0,0,1-.37,2.8,6.08,6.08,0,0,1-1.48,2.51A2.34,2.34,0,0,1,3.94,15,1.53,1.53,0,0,1,3,14.7a1.9,1.9,0,0,1-.59-.65,2.28,2.28,0,0,1-.31-.78,3.19,3.19,0,0,1,0-.81A7.38,7.38,0,0,1,2.41,11l.35.59a5.57,5.57,0,0,1-.93-.28A4.09,4.09,0,0,1,1,10.83a2.42,2.42,0,0,1-.72-.77A2,2,0,0,1,0,9V8.91a2,2,0,0,1,1.5-1.44,5.75,5.75,0,0,1,1.88-.14,10.79,10.79,0,0,1,1.79.3A10.74,10.74,0,0,1,6.83,8.37Z"/><path class="cls-1" d="M7.58,6.67c0-.6.14-1.19.08-1.76a12.36,12.36,0,0,0-.15-1.73A4.76,4.76,0,0,0,7,1.6,1.24,1.24,0,0,0,6,.82h.06a1.25,1.25,0,0,0-1,.79,4.13,4.13,0,0,0-.36,1.52l0,.5-.51-.07c-.83-.11-1.8-.21-2.32.27a.86.86,0,0,0-.42.8A1.69,1.69,0,0,0,2,5.56,6.27,6.27,0,0,0,4.34,6.77a17,17,0,0,0,2.72.42,12.07,12.07,0,0,1-2.82,0,6,6,0,0,1-2.7-1.1,2.38,2.38,0,0,1-.9-1.37,1.58,1.58,0,0,1,.13-.93,2,2,0,0,1,.55-.67,2.31,2.31,0,0,1,.74-.42,2.8,2.8,0,0,1,.79-.14,6.74,6.74,0,0,1,1.49.08l-.52.43a4.28,4.28,0,0,1,.14-1,4,4,0,0,1,.33-.93A2.48,2.48,0,0,1,5,.39,2,2,0,0,1,6,0h.06A2,2,0,0,1,7.7,1.27a5.55,5.55,0,0,1,.41,1.84,10,10,0,0,1,0,1.82A10.89,10.89,0,0,1,7.58,6.67Z"/><path class="cls-1" d="M8.88,7.45c.59.09,1.16.31,1.73.34a12.64,12.64,0,0,0,1.73.1A5.06,5.06,0,0,0,14,7.66a1.29,1.29,0,0,0,.93-.92V6.8a1.29,1.29,0,0,0-.65-1.1,4,4,0,0,0-1.45-.57L12.3,5l.14-.49c.23-.81.48-1.75.07-2.34a.86.86,0,0,0-.73-.53,1.65,1.65,0,0,0-1,.44A6.08,6.08,0,0,0,9.25,4.23a17.13,17.13,0,0,0-.82,2.63,11.72,11.72,0,0,1,.38-2.8,6,6,0,0,1,1.48-2.51A2.34,2.34,0,0,1,11.77.86a1.53,1.53,0,0,1,.9.26,2.13,2.13,0,0,1,.59.65,2.46,2.46,0,0,1,.31.79,3.09,3.09,0,0,1,0,.8,6.09,6.09,0,0,1-.3,1.47l-.35-.59a5.69,5.69,0,0,1,.94.28,4,4,0,0,1,.86.47,2.35,2.35,0,0,1,.73.77,2,2,0,0,1,.23,1.09v.06A2,2,0,0,1,14.2,8.35a5.49,5.49,0,0,1-1.88.14,9.7,9.7,0,0,1-1.79-.3A9.86,9.86,0,0,1,8.88,7.45Z"/></g></g></svg>