<?xml version="1.0" encoding="UTF-8"?>
<svg width="16px" height="16px" viewBox="0 0 16 16" version="1.1" xmlns="http://www.w3.org/2000/svg" xmlns:xlink="http://www.w3.org/1999/xlink">
    <title>Shape</title>
    <g id="Page-1" stroke="none" stroke-width="1" fill="none" fill-rule="evenodd">
        <g id="Mobile-Copy-3" transform="translate(-17.000000, -1303.000000)" fill="#FFFFFF" fill-rule="nonzero">
            <path d="M33,1310.22581 C33,1305.83068 29.4533226,1303 25,1303 C20.5787097,1303 17,1306.57803 17,1311 C17,1315.42126 20.5780323,1319 25,1319 C26.7072903,1319 28.3768065,1318.44906 29.7450323,1317.44126 C29.9224839,1317.31055 29.9522258,1317.05661 29.8126129,1316.88606 L29.3215161,1316.28616 C29.1907097,1316.12635 28.9586452,1316.09897 28.7915806,1316.22032 C27.6950645,1317.01668 26.3625161,1317.45161 25,1317.45161 C21.4425806,1317.45161 18.5483871,1314.55742 18.5483871,1311 C18.5483871,1307.44258 21.4425806,1304.54839 25,1304.54839 C28.5312581,1304.54839 31.4516129,1306.64581 31.4516129,1310.22581 C31.4516129,1312.26148 30.0813548,1313.39645 28.7735484,1313.39645 C28.1443548,1313.39645 28.1240968,1312.98935 28.2456129,1312.38152 L29.168871,1307.58935 C29.214871,1307.35058 29.0319355,1307.12903 28.7887742,1307.12903 L27.5250645,1307.12903 C27.3394764,1307.1291 27.1800279,1307.26082 27.1449355,1307.44306 C27.1093871,1307.62768 27.0913548,1307.71197 27.0713871,1307.89445 C26.6867742,1307.26387 25.9140323,1306.89226 24.9680968,1306.89226 C22.6584516,1306.89226 20.6129032,1308.90803 20.6129032,1311.82355 C20.6129032,1313.79642 21.6734516,1315.11742 23.6187097,1315.11742 C24.5800968,1315.11742 25.5975484,1314.57442 26.1912581,1313.75487 C26.3249677,1314.7499 27.1105161,1314.981 28.1064839,1314.981 C31.3053871,1314.98097 33,1312.92858 33,1310.22581 Z M24.1645161,1313.36613 C23.2460645,1313.36613 22.6977419,1312.73845 22.6977419,1311.6871 C22.6977419,1309.83181 23.973871,1308.67387 25.1045161,1308.67387 C26.076129,1308.67387 26.5713226,1309.36845 26.5713226,1310.33774 C26.5713226,1311.84948 25.5010968,1313.36613 24.1645161,1313.36613 Z" id="Shape"></path>
        </g>
    </g>
</svg>