<svg xmlns="http://www.w3.org/2000/svg" viewBox="0 0 103.41 103.42"><defs><style>.cls-1,.cls-2{fill:#fff;}.cls-1{stroke:#fff;stroke-miterlimit:10;stroke-width:0.25px;}</style></defs><g id="Layer_2" data-name="Layer 2"><g id="Layer_3" data-name="Layer 3"><path class="cls-1" d="M43.74,57.53c.48.2,1.35-.13.9.63a6.6,6.6,0,0,1-1.15,1.65,72.05,72.05,0,0,1-13.74,13,15.33,15.33,0,0,1-6.14,2.9,9.57,9.57,0,0,1-2.82.16A5.6,5.6,0,0,1,16,72.35a12.45,12.45,0,0,1-1-4.7,36.5,36.5,0,0,1,1.8-12A52.86,52.86,0,0,1,31.23,32a30.57,30.57,0,0,1,6.5-4.81,10.51,10.51,0,0,1,4-1.34,2.85,2.85,0,0,1,3.43,2.72,10.41,10.41,0,0,1-.35,3.85A58.79,58.79,0,0,1,41,43.13c-.61,1.34-1.27,2.66-1.92,4-.19.4-.55.67-.2,1.27s-.83,1.66-1.6,1.38a.68.68,0,0,1-.48-.91,5.87,5.87,0,0,1,.43-1,76,76,0,0,0,6.14-15c.31-1.11.46-2.27.66-3.41a3.29,3.29,0,0,0,0-.94,1.86,1.86,0,0,0-2.28-1.87,11.48,11.48,0,0,0-2.64.66,21.73,21.73,0,0,0-6,3.79,49.51,49.51,0,0,0-14.71,21,43.55,43.55,0,0,0-2.9,11.5c-.14,1.57-.13,3.15-.18,4.69.3,1.15.5,2.26.88,3.3,1.3,3.52,4.29,4.09,6.75,3.62a12.19,12.19,0,0,0,4.62-2q1.95-1.34,3.78-2.85A75.36,75.36,0,0,0,41.6,60.18"/><path class="cls-1" d="M43,60.63a5.48,5.48,0,0,0-.69,1.42,12.39,12.39,0,0,0-.46,2.1c-.28,1.33-.45,2.25-.87,4.23A3.79,3.79,0,0,0,41,69l.8-1.14C43.24,66,44.6,64,46.07,62.11a29.54,29.54,0,0,1,2.35-2.4,3.75,3.75,0,0,1,.69-.49c1.24-.7,2.2-.39,2.65,1a29.72,29.72,0,0,1,.68,3,12.41,12.41,0,0,0,.42,1.62A1.44,1.44,0,0,0,55,65.7a9.25,9.25,0,0,0,1.47-.83,52.14,52.14,0,0,0,6.81-5.29,4.9,4.9,0,0,1,1.14-.82c.24-.1.67,0-.32,1-2.34,1.92-4.23,4.06-6.84,5.59a9.62,9.62,0,0,1-2.41,1,1.89,1.89,0,0,1-2.41-1.17,11.6,11.6,0,0,1-.62-1.89c-.23-.81-.37-1.65-.65-2.44-.42-1.24-.87-1.34-1.9-.48a7.36,7.36,0,0,0-.76.72,49.23,49.23,0,0,0-6.12,8.3,5.94,5.94,0,0,0-.34,1.81,1.85,1.85,0,0,1-.34.84,1.34,1.34,0,0,1-2.37-.59,6.92,6.92,0,0,1-.1-2A26.9,26.9,0,0,1,40.58,63c.16-.57,0-1.1.23-1.74a3.92,3.92,0,0,1,.37-.82A10.9,10.9,0,0,0,41.83,59,115.51,115.51,0,0,1,52.31,35.89c1.1-1.83,2.34-3.59,3.57-5.34a6.5,6.5,0,0,1,1.49-1.47,1.22,1.22,0,0,1,2.09.86,7.16,7.16,0,0,1-.07,2.4,21,21,0,0,1-1.2,4c-1.06,2.28-4,12.89-13.87,22.81A9.57,9.57,0,0,0,43,60.63Zm15.23-30.5L58,30a7.1,7.1,0,0,0-.91.82,29.18,29.18,0,0,0-1.85,2.42A103.6,103.6,0,0,0,43.84,56.9a3.31,3.31,0,0,0-.1.63,3.26,3.26,0,0,0,.95-.89A89.54,89.54,0,0,0,57.11,34.86a24.93,24.93,0,0,0,1-3.22A9.32,9.32,0,0,0,58.21,30.13Z"/><path class="cls-1" d="M76.21,61.16C76,61.43,70,65.92,65.9,66.67a8.37,8.37,0,0,1-2.91,0,2.32,2.32,0,0,1-2-2.25,3.39,3.39,0,0,1,.36-2.09,9.5,9.5,0,0,1,1.74-2.62,5.12,5.12,0,0,1,1.38-.92,1.46,1.46,0,0,1,1.71.45,1.32,1.32,0,0,1,.1,1.66A5.44,5.44,0,0,1,65,62.28c-1.06.78-2.2,1.46-3.4,2.23a1.78,1.78,0,0,0,1.64,1.72,6.91,6.91,0,0,0,3.92-.47,27.57,27.57,0,0,0,8.25-5c.37-.31,1-.48,1.29-.85s.33-.92.69-.61S76.86,60.64,76.21,61.16Zm-14,1.37a4.59,4.59,0,0,0,3.19-2.87A4.61,4.61,0,0,0,62.24,62.53Z"/><path class="cls-1" d="M78.41,59.69l.86,0c1.12,0,2,.77,1.78,1.47-.44,1.77-1,3.08-1.5,4.84s-.89,3.32-1.3,5c-.09.39.06,1.59,1.09.6a24.94,24.94,0,0,0,2.17-2.43c1.59-2.19,3.14-4.4,4.64-6.65a26.78,26.78,0,0,0,1.37-2.6c.08-.16.61-1.21,1-1s.43.62.26,1.15-6,9.15-7.62,11a8.91,8.91,0,0,1-2,1.91c-1.19.7-2,.15-1.92-1.24a9.21,9.21,0,0,1,.34-1.86c.64-2.4,1.2-4.37,1.84-6.78.27-1,.42-2.35-.32-2.3a13.35,13.35,0,0,0-1.66.27,2.31,2.31,0,0,1-1.81-.31,1.63,1.63,0,0,1-.85-1.68,4.38,4.38,0,0,1,1.72-3A1.42,1.42,0,0,1,78,55.77a1.28,1.28,0,0,1,.73,1.4C78.71,58,78.55,58.76,78.41,59.69Zm-.75-2.86c-1.48.48-2.27,2.35-.83,3C77,59.27,77.51,57.34,77.66,56.83Z"/><path class="cls-2" d="M94.83,95.82c0,.6-.14,1.19-.09,1.76a12.22,12.22,0,0,0,.15,1.72,5,5,0,0,0,.47,1.59,1.27,1.27,0,0,0,1,.78h-.06a1.28,1.28,0,0,0,1-.8,4.08,4.08,0,0,0,.36-1.52l0-.49.5.06c.83.11,1.8.22,2.32-.27a.85.85,0,0,0,.42-.8,1.59,1.59,0,0,0-.58-.92,6.16,6.16,0,0,0-2.31-1.21,16.19,16.19,0,0,0-2.73-.43,11.56,11.56,0,0,1,2.82,0,6,6,0,0,1,2.7,1.1,2.32,2.32,0,0,1,.9,1.36,1.56,1.56,0,0,1-.12.93,2.11,2.11,0,0,1-.56.68,2.39,2.39,0,0,1-.74.42,3.21,3.21,0,0,1-.79.14,6.19,6.19,0,0,1-1.49-.09l.53-.42a5.06,5.06,0,0,1-.15,1,3.63,3.63,0,0,1-.33.92,2.51,2.51,0,0,1-.66.84,2.09,2.09,0,0,1-1,.38h-.06a2,2,0,0,1-1.64-1.27,5.82,5.82,0,0,1-.41-1.84,10.92,10.92,0,0,1,0-1.81A9.72,9.72,0,0,1,94.83,95.82Z"/><path class="cls-2" d="M93.52,95a14.11,14.11,0,0,0-1.72-.34,12.71,12.71,0,0,0-1.74-.11,5.06,5.06,0,0,0-1.63.24,1.24,1.24,0,0,0-.92.92v-.06a1.24,1.24,0,0,0,.64,1.09,3.85,3.85,0,0,0,1.45.58l.49.09-.14.49a3,3,0,0,0-.07,2.34c.19.33.42.54.73.53a1.62,1.62,0,0,0,1-.44,6,6,0,0,0,1.53-2.11A17.25,17.25,0,0,0,94,95.62a12.23,12.23,0,0,1-.37,2.8,6,6,0,0,1-1.49,2.51,2.29,2.29,0,0,1-1.48.69,1.53,1.53,0,0,1-.9-.26,2.05,2.05,0,0,1-.58-.64,2.42,2.42,0,0,1-.31-.79,3.19,3.19,0,0,1,0-.81,6,6,0,0,1,.3-1.46l.35.58a5.3,5.3,0,0,1-.93-.28,4.27,4.27,0,0,1-.87-.46,2.49,2.49,0,0,1-.73-.78,2.07,2.07,0,0,1-.23-1.09v-.06a2,2,0,0,1,1.5-1.44A5.69,5.69,0,0,1,90.08,94a9.71,9.71,0,0,1,1.79.31A8.81,8.81,0,0,1,93.52,95Z"/><path class="cls-2" d="M94.27,93.33c0-.6.14-1.19.09-1.76a14.25,14.25,0,0,0-.15-1.73,5,5,0,0,0-.47-1.58,1.24,1.24,0,0,0-1-.78h.06a1.27,1.27,0,0,0-1,.79,3.94,3.94,0,0,0-.36,1.52l0,.5-.5-.07c-.83-.11-1.8-.21-2.32.27a.84.84,0,0,0-.42.8,1.64,1.64,0,0,0,.57.93A6.2,6.2,0,0,0,91,93.43a17.27,17.27,0,0,0,2.73.42,11.63,11.63,0,0,1-2.83,0,6,6,0,0,1-2.69-1.1,2.33,2.33,0,0,1-.9-1.37,1.51,1.51,0,0,1,.12-.93,2.18,2.18,0,0,1,.56-.67,2.26,2.26,0,0,1,.73-.42,2.93,2.93,0,0,1,.8-.14,6.74,6.74,0,0,1,1.49.08l-.53.43a6,6,0,0,1,.14-1,4.17,4.17,0,0,1,.34-.93,2.48,2.48,0,0,1,.66-.83,2,2,0,0,1,1-.39h.06a2,2,0,0,1,1.64,1.28,5.7,5.7,0,0,1,.41,1.83,11,11,0,0,1,0,1.82A10,10,0,0,1,94.27,93.33Z"/><path class="cls-2" d="M95.58,94.11c.59.09,1.15.31,1.72.34a12.69,12.69,0,0,0,1.74.1,5.1,5.1,0,0,0,1.63-.23,1.24,1.24,0,0,0,.92-.92v.06a1.29,1.29,0,0,0-.64-1.1,4.07,4.07,0,0,0-1.45-.57l-.49-.1.14-.49c.23-.81.47-1.75.07-2.33a.87.87,0,0,0-.73-.54,1.6,1.6,0,0,0-1,.44A6.17,6.17,0,0,0,96,90.89a17.13,17.13,0,0,0-.82,2.63,11.62,11.62,0,0,1,.37-2.79A6,6,0,0,1,97,88.22a2.29,2.29,0,0,1,1.49-.69,1.47,1.47,0,0,1,.9.25,2,2,0,0,1,.58.65,2.33,2.33,0,0,1,.31.79,3.11,3.11,0,0,1,0,.8,7.24,7.24,0,0,1-.3,1.47l-.35-.59a5.3,5.3,0,0,1,.93.28,4.09,4.09,0,0,1,.87.47,2.57,2.57,0,0,1,.73.77,2.11,2.11,0,0,1,.23,1.09v.06a2,2,0,0,1-1.5,1.44,5.2,5.2,0,0,1-1.87.14,9.7,9.7,0,0,1-1.79-.3A8.81,8.81,0,0,1,95.58,94.11Z"/><polygon class="cls-2" points="78.95 102.77 39.98 103.16 1 103.41 0.36 103.42 0.36 102.77 0.19 77.33 0.11 51.89 0 1 0 0 1 0 51.89 0.11 77.33 0.2 102.77 0.36 103.41 0.37 103.41 1 103.15 40.61 102.77 80.23 102.39 40.61 102.13 1 102.77 1.64 77.33 1.81 51.89 1.89 1 2 2 1 1.89 51.89 1.81 77.33 1.65 102.77 1 102.13 39.98 102.38 78.95 102.77"/><path class="cls-2" d="M60.85,47v5.68h-.49V50.12H58.14v2.53h-.49V47h.49v2.52h2.22V47Z"/><path class="cls-2" d="M66.07,51.71H63.69l-.32.94h-.53l2-5.77h0l2,5.77h-.54Zm-.18-.55-1-2.92-1,2.92Z"/><path class="cls-2" d="M68.92,47h.49v5.68h-.49Z"/><path class="cls-2" d="M74.32,52.65l-1.21-2.22h-.82v2.22H71.8V47h1.28a1.83,1.83,0,0,1,.56,3.39l1.29,2.29ZM73.1,49.89a1.16,1.16,0,0,0,0-2.29h-.81v2.29Z"/><path class="cls-2" d="M84.85,50.91a1.58,1.58,0,0,1-1.38,1.74H81.86V47h1.19a1.33,1.33,0,0,1,1.25,1.41c0,.62-.34,1.07-.56,1.07A1.33,1.33,0,0,1,84.85,50.91Zm-2.5-3.32v1.72h.72a.77.77,0,0,0,.77-.85.82.82,0,0,0-.77-.87Zm2,3.28a1,1,0,0,0-1-1H82.35V52h1.08A1.06,1.06,0,0,0,84.37,50.87Z"/><path class="cls-2" d="M88.06,50.23,86.52,47h.56l1.23,2.55L89.55,47h.55l-1.55,3.26v2.42h-.49Z"/></g></g></svg>