<?xml version="1.0" encoding="UTF-8"?>
<svg width="12px" height="16px" viewBox="0 0 12 16" version="1.1" xmlns="http://www.w3.org/2000/svg" xmlns:xlink="http://www.w3.org/1999/xlink">
    <title>Shape</title>
    <g id="Page-1" stroke="none" stroke-width="1" fill="none" fill-rule="evenodd">
        <g id="Mobile-Copy-3" transform="translate(-19.000000, -1341.000000)" fill="#FFFFFF" fill-rule="nonzero">
            <path d="M24.383375,1356.67719 C19.8428125,1350.09472 19,1349.41916 19,1347 C19,1343.68628 21.6862813,1341 25,1341 C28.3137187,1341 31,1343.68628 31,1347 C31,1349.41916 30.1571875,1350.09472 25.616625,1356.67719 C25.3186563,1357.10763 24.6813125,1357.10759 24.383375,1356.67719 Z M25,1349.5 C26.3807187,1349.5 27.5,1348.38072 27.5,1347 C27.5,1345.61928 26.3807187,1344.5 25,1344.5 C23.6192813,1344.5 22.5,1345.61928 22.5,1347 C22.5,1348.38072 23.6192813,1349.5 25,1349.5 Z" id="Shape"></path>
        </g>
    </g>
</svg>