<?xml version="1.0" encoding="UTF-8"?>
<svg width="20px" height="20px" viewBox="0 0 20 20" version="1.1" xmlns="http://www.w3.org/2000/svg" xmlns:xlink="http://www.w3.org/1999/xlink">
    <title>Path</title>
    <g id="Page-1" stroke="none" stroke-width="1" fill="none" fill-rule="evenodd">
        <g id="Mobile-Copy-3" transform="translate(-36.000000, -1095.000000)" fill="#FFFFFF" fill-rule="nonzero">
            <path d="M55.2734523,1095.96134 L51.2110349,1095.02386 C50.7696377,1094.9223 50.3165219,1095.15276 50.136838,1095.56682 L48.2618762,1099.94173 C48.097817,1100.32453 48.2071898,1100.77374 48.5314019,1101.03546 L50.8985413,1102.97292 C49.4923199,1105.96895 47.0353386,1108.46109 43.9768071,1109.89465 L42.0393465,1107.52751 C41.7737269,1107.2033 41.3284235,1107.09393 40.9456188,1107.25799 L36.5707078,1109.13295 C36.1527475,1109.31654 35.9222834,1109.76965 36.0238439,1110.21105 L36.9613248,1114.27347 C37.0589791,1114.69533 37.4339714,1115.00002 37.8753687,1115.00002 C47.8790715,1115.00002 56,1106.89471 56,1096.87538 C56,1096.43789 55.6992249,1096.05899 55.2734523,1095.96134 Z" id="Path" transform="translate(46.000000, 1105.000008) scale(-1, 1) translate(-46.000000, -1105.000008) "></path>
        </g>
    </g>
</svg>